<svg width="20" height="22" viewBox="0 0 20 22" fill="none" xmlns="http://www.w3.org/2000/svg">
<path d="M19.728 18.5864L15.8332 14.5911C15.6574 14.4107 15.4191 14.3106 15.1691 14.3106H14.5323C15.6105 12.8959 16.2512 11.1167 16.2512 9.18108C16.2512 4.57659 12.6142 0.845703 8.12559 0.845703C3.63698 0.845703 0 4.57659 0 9.18108C0 13.7856 3.63698 17.5165 8.12559 17.5165C10.0125 17.5165 11.747 16.8593 13.126 15.7532V16.4064C13.126 16.6629 13.2236 16.9073 13.3994 17.0877L17.2942 21.083C17.6614 21.4597 18.2552 21.4597 18.6185 21.083L19.7241 19.949C20.0913 19.5723 20.0913 18.9631 19.728 18.5864ZM8.12559 14.3106C5.36367 14.3106 3.12523 12.0183 3.12523 9.18108C3.12523 6.34786 5.35977 4.05162 8.12559 4.05162C10.8875 4.05162 13.126 6.34385 13.126 9.18108C13.126 12.0143 10.8914 14.3106 8.12559 14.3106Z" fill="#581E1E"/>
</svg>
