<svg width="548" height="39" viewBox="0 0 548 39" fill="none" xmlns="http://www.w3.org/2000/svg">
<path d="M19.5 23.5645H254.5" stroke="#581E1E" stroke-width="2"/>
<path d="M6.5 33.0645C10.1418 29.786 19.9162 27.7259 19.5 23.5645C19.0838 19.4031 11.0597 17.5638 6.5 14.0645L10 23.5645C7.58642 27.299 6.95361 29.3699 6.5 33.0645Z" fill="#581E1E" stroke="#581E1E" stroke-width="2"/>
<path d="M200.999 23.0689L201.476 23.9479L201.561 23.9016L201.636 23.8398L200.999 23.0689ZM159.499 23.0689L158.611 23.5278L158.657 23.6185L158.722 23.6979L159.499 23.0689ZM166.999 3.06891L167.124 4.06112L166.999 3.06891ZM167.42 16.162C166.919 15.9293 166.325 16.1467 166.092 16.6476C165.859 17.1485 166.077 17.7431 166.578 17.9758L167.42 16.162ZM247.018 18.214C237.852 12.653 230.545 9.96981 223.273 10.6049C216.011 11.2392 208.994 15.1653 200.362 22.2981L201.636 23.8398C210.183 16.7772 216.807 13.1773 223.447 12.5974C230.077 12.0183 236.93 14.4328 245.98 19.9239L247.018 18.214ZM200.522 22.19C189.432 28.2072 181.751 31.1724 175.671 31.2095C169.732 31.2458 165.161 28.4773 160.276 22.44L158.722 23.6979C163.823 30.0033 168.914 33.2509 175.684 33.2095C182.314 33.169 190.39 29.9628 201.476 23.9479L200.522 22.19ZM160.388 22.61C157.686 17.3803 157.637 12.9566 159.059 9.7836C160.479 6.6136 163.437 4.52401 167.124 4.06112L166.874 2.07671C162.56 2.61848 158.965 5.10102 157.233 8.96592C155.503 12.8279 155.705 17.9018 158.611 23.5278L160.388 22.61ZM167.124 4.06112C170.608 3.62357 173.286 5.61425 174.847 8.23719C175.626 9.54561 176.092 10.9628 176.222 12.2094C176.355 13.4858 176.123 14.429 175.713 14.9506L177.285 16.1872C178.151 15.0868 178.37 13.5309 178.211 12.0024C178.049 10.4441 177.481 8.75069 176.566 7.21405C174.74 4.14685 171.391 1.5096 166.874 2.07671L167.124 4.06112ZM175.713 14.9506C174.548 16.4312 173.418 17.0987 172.205 17.2634C170.944 17.4345 169.417 17.0896 167.42 16.162L166.578 17.9758C168.707 18.9652 170.654 19.4923 172.474 19.2452C174.341 18.9918 175.898 17.9508 177.285 16.1872L175.713 14.9506Z" fill="#581E1E"/>
<circle cx="4" cy="23.0645" r="4" fill="#581E1E"/>
<path d="M292 24H527" stroke="#581E1E" stroke-width="2"/>
<path d="M540.014 14C536.372 17.2784 526.597 19.3386 527.014 23.5C527.43 27.6614 535.454 29.5006 540.014 33L536.514 23.5C538.927 19.7655 539.56 17.6946 540.014 14Z" fill="#581E1E" stroke="#581E1E" stroke-width="2"/>
<path d="M345.314 24.069L344.835 24.9471L344.75 24.9006L344.675 24.8386L345.314 24.069ZM386.643 24.069L387.533 24.5264L387.486 24.617L387.422 24.6964L386.643 24.069ZM379.174 4.06891L379.299 3.07677L379.174 4.06891ZM369.713 16.569L368.926 17.1857L368.926 17.1857L369.713 16.569ZM378.751 17.1627C379.252 16.9292 379.847 17.1457 380.08 17.6462C380.314 18.1467 380.097 18.7417 379.597 18.9752L378.751 17.1627ZM299.48 19.215C308.608 13.6539 315.887 10.9696 323.132 11.605C330.366 12.2395 337.356 16.1667 345.952 23.2994L344.675 24.8386C336.163 17.7759 329.567 14.1771 322.957 13.5974C316.357 13.0185 309.533 15.432 300.52 20.923L299.48 19.215ZM345.792 23.1909C356.837 29.2083 364.485 32.1725 370.537 32.2096C376.449 32.2459 381 29.4793 385.865 23.4416L387.422 24.6964C382.342 31.0015 377.271 34.251 370.525 34.2096C363.92 34.1691 355.875 30.9619 344.835 24.9471L345.792 23.1909ZM385.754 23.6116C388.445 18.3814 388.494 13.9564 387.078 10.7822C385.663 7.61156 382.717 5.52357 379.049 5.06106L379.299 3.07677C383.599 3.61893 387.18 6.10309 388.904 9.96735C390.627 13.8281 390.427 18.9008 387.533 24.5264L385.754 23.6116ZM379.049 5.06106C375.583 4.62408 372.918 6.61181 371.363 9.23565C370.587 10.5442 370.123 11.9618 369.993 13.209C369.861 14.4862 370.091 15.4303 370.5 15.9523L368.926 17.1857C368.064 16.0856 367.846 14.5305 368.004 13.0029C368.165 11.4452 368.731 9.75216 369.642 8.21562C371.46 5.14931 374.797 2.50908 379.299 3.07677L379.049 5.06106ZM370.5 15.9523C371.66 17.433 372.785 18.0991 373.991 18.2635C375.244 18.4344 376.763 18.0901 378.751 17.1627L379.597 18.9752C377.476 19.9648 375.535 20.4926 373.721 20.2452C371.859 19.9914 370.308 18.9491 368.926 17.1857L370.5 15.9523Z" fill="#581E1E"/>
<circle cx="544" cy="24" r="4" fill="#581E1E"/>
<ellipse cx="274.751" cy="20.146" rx="1.29925" ry="1.31201" fill="#581E1E"/>
<path d="M264.709 16.5225C262.15 16.575 261.57 18.6246 259 19.652C261.505 20.555 262.15 22.7289 264.709 22.7814C267.369 22.836 268.1 20.4594 270.711 19.652C268.113 18.6285 267.369 16.4679 264.709 16.5225Z" fill="#581E1E" stroke="#581E1E" stroke-width="2"/>
<path d="M283.998 16.5225C281.439 16.575 280.859 18.6246 278.289 19.652C280.794 20.555 281.439 22.7289 283.998 22.7814C286.658 22.836 287.389 20.4594 290 19.652C287.403 18.6285 286.658 16.4679 283.998 16.5225Z" fill="#581E1E" stroke="#581E1E" stroke-width="2"/>
<path d="M271.401 30.2348C271.453 32.8192 273.483 33.4049 274.5 36C275.395 33.4707 277.547 32.8192 277.599 30.2348C277.654 27.5492 275.3 26.8109 274.5 24.1739C273.487 26.797 271.347 27.5492 271.401 30.2348Z" fill="#581E1E" stroke="#581E1E" stroke-width="2"/>
<path d="M271.401 10.061C271.453 12.6454 273.483 13.2311 274.5 15.8262C275.395 13.2968 277.547 12.6454 277.599 10.061C277.654 7.37542 275.3 6.63711 274.5 4.00008C273.487 6.6232 271.347 7.37542 271.401 10.061Z" fill="#581E1E" stroke="#581E1E" stroke-width="2"/>
<path d="M265.889 10.957C266.824 14.5558 268.427 15.7433 272.089 17.2179C270.933 14.1811 269.862 12.6717 265.889 10.957Z" fill="#581E1E" stroke="#581E1E" stroke-width="2"/>
<path d="M265.232 29.3867C268.796 28.4426 269.972 26.8235 271.432 23.1258C268.425 24.2929 266.93 25.374 265.232 29.3867Z" fill="#581E1E" stroke="#581E1E" stroke-width="2"/>
<path d="M276.911 17.2168C280.475 16.2727 281.651 14.6536 283.111 10.9559C280.104 12.123 278.609 13.2041 276.911 17.2168Z" fill="#581E1E" stroke="#581E1E" stroke-width="2"/>
<path d="M277.482 22.9043C278.417 26.5031 280.021 27.6906 283.682 29.1652C282.527 26.1284 281.456 24.619 277.482 22.9043Z" fill="#581E1E" stroke="#581E1E" stroke-width="2"/>
</svg>
