<svg xmlns="http://www.w3.org/2000/svg" width="157.566" height="24.316" viewBox="0 0 157.566 24.316">
  <g id="Stars" transform="translate(-1087.112 -635.947)">
    <g id="Group_175" data-name="Group 175" transform="translate(1086 634.21)">
      <path id="Path_196" data-name="Path 196" d="M14.063,2l-3.951,8.007L1.28,11.283l6.392,6.235-1.511,8.8,7.9-4.151,7.9,4.151-1.511-8.8,6.392-6.227-8.832-1.285Z" transform="translate(-0.168 -0.263)" fill="#ffc803"/>
    </g>
    <g id="Group_176" data-name="Group 176" transform="translate(1119 634.21)">
      <path id="Path_196-2" data-name="Path 196" d="M14.063,2l-3.951,8.007L1.28,11.283l6.392,6.235-1.511,8.8,7.9-4.151,7.9,4.151-1.511-8.8,6.392-6.227-8.832-1.285Z" transform="translate(-0.168 -0.263)" fill="#ffc803"/>
    </g>
    <g id="Group_177" data-name="Group 177" transform="translate(1152 634.21)">
      <path id="Path_196-3" data-name="Path 196" d="M14.063,2l-3.951,8.007L1.28,11.283l6.392,6.235-1.511,8.8,7.9-4.151,7.9,4.151-1.511-8.8,6.392-6.227-8.832-1.285Z" transform="translate(-0.168 -0.263)" fill="#ffc803"/>
    </g>
    <g id="Group_178" data-name="Group 178" transform="translate(1185 634.21)">
      <path id="Path_196-4" data-name="Path 196" d="M14.063,2l-3.951,8.007L1.28,11.283l6.392,6.235-1.511,8.8,7.9-4.151,7.9,4.151-1.511-8.8,6.392-6.227-8.832-1.285Z" transform="translate(-0.168 -0.263)" fill="#ffc803"/>
    </g>
    <g id="Group_179" data-name="Group 179" transform="translate(1218 634.21)">
      <path id="Path_196-5" data-name="Path 196" d="M14.063,2l-3.951,8.007L1.28,11.283l6.392,6.235-1.511,8.8,7.9-4.151,7.9,4.151-1.511-8.8,6.392-6.227-8.832-1.285Z" transform="translate(-0.168 -0.263)" fill="#ffc803"/>
    </g>
  </g>
</svg>
